<svg xmlns="http://www.w3.org/2000/svg" viewBox="0 0 146.67 208.1"><defs><style>.cls-1{fill:#f8e883;}.cls-2{fill:#eec06b;}.cls-3{fill:#5a86cc;}.cls-4{fill:#3b68b0;}.cls-5{fill:#d97b7b;}.cls-6{fill:#d16161;}.cls-7{fill:#5fb9ff;}.cls-8{fill:#ff5559;}.cls-9{fill:#00df71;}.cls-10{fill:#ff5fe6;}</style></defs><g id="Layer_2" data-name="Layer 2"><g id="Capa_1" data-name="Capa 1"><path class="cls-1" d="M134.42,101.94c-.54-6.26,1.21-13,2.57-16.74a2.18,2.18,0,0,0-2-2.93h-21.4L105,72.48H81.63a42.85,42.85,0,0,1-4.39-17.75c0-8.62-3-9.07-9.53-9.83,0,0,5.1-15.18,13.19-22.4C89.53,14.81,94,15.72,94,11c0-4-3.08-6.08-6.9-6.08s-8.64,4.2-13.93,8.8C70.07,16.37,66.59,20,60.9,19.09A3.09,3.09,0,0,0,57.5,21c-.89,2.28-2.4,5.26-4.13,5.26a9.09,9.09,0,0,1-4.7-2,3.14,3.14,0,0,0-3.71,0c-2.76,2-7,6.92-6,17.39a37.29,37.29,0,0,0-11.65,7.78,1.88,1.88,0,0,0-.13,2.58l-8.73,1s2.1,46.68,2.69,58.63l114.7-4.13a18.47,18.47,0,0,1-1.39-5.62Z"/><path class="cls-2" d="M27.13,103.65S23.9,99.46,24.08,97c.34-4.53,3.52-11.64,2-18.89a209.69,209.69,0,0,0-7.63-25A2.38,2.38,0,0,0,16.37,56,10.3,10.3,0,0,1,13,66.69a2.39,2.39,0,0,0-.66,2.83,81.81,81.81,0,0,1,5.5,16.83c1.55,7.25-1.63,14.36-2,18.89a5.51,5.51,0,0,0,.49,2.32l8.55,4.13Z"/><path class="cls-3" d="M141.13,129.12a41.42,41.42,0,0,0-6.11-6.18l4.8-3.55a3.35,3.35,0,0,0,.46-5,23.07,23.07,0,0,1-4.47-6.85H21.11c.09,2,.15,3.09.15,3.09L7,134.05l19.7,15.84a3,3,0,0,0,1.14.57c2.66.68,13.36,3.68,22.42,9.79l57.83-4.13.28-3.1h7.27a3.19,3.19,0,0,0,3.23-3,3.11,3.11,0,0,0-3.1-3.2h-6.85l.83-9.44Z"/><path class="cls-4" d="M53.41,151c-11-7.22-23.68-4.82-23.68-4.82L10,133.36l14.89-25.8H16.31a21.77,21.77,0,0,0,2.56,4.35l-8.23,14.24a9.81,9.81,0,0,0-7.47,2.26C.29,130.62-.08,135.1,0,138a5,5,0,0,0,2.27,4l17.66,11.45a5,5,0,0,0,3.21.77,36.91,36.91,0,0,1,15.69,1.91l11.41,4.13,9.8-4.13A54.14,54.14,0,0,0,53.41,151Z"/><path class="cls-4" d="M141.13,129.12H110.47l-.73,8.26H132a5,5,0,0,0,3.87-1.84l1-1.21a13.13,13.13,0,0,1,3.57,8.77,3.18,3.18,0,0,0,2.95,3.19,3.09,3.09,0,0,0,3.25-3.09c0-5.59-1.81-9.57-5.54-14.08Z"/><path class="cls-5" d="M107.73,160.05l.35-3.93h-48c.58.39-8.64.8-8.08,1.25,18.46,14.54,18.34,31.87,28,28.22,16.2-6.13,25.58,1,25.58,1l-7.7,14.47,13.36-4.13c1.66-6.43,3.49-13.47,4.35-16.81,1.81-7-.57-16.06-7.8-20.07Z"/><path class="cls-6" d="M110,182a15.79,15.79,0,0,0-11.1-4.11c-6.21,0-8.64,1.19-13.25,3.22a8.49,8.49,0,0,1-11.22-4.31,59,59,0,0,0-14.42-20.66H38.84a29.86,29.86,0,0,1,6.31,3.13c9,5.9,16,14.11,21.06,25.78a8.49,8.49,0,0,0,11.22,4.32c4.61-2,7-3.22,13.25-3.22a15.79,15.79,0,0,1,11.1,4.11L95.25,202.3A2,2,0,0,0,97,205.19h6.35l2,2.24a2,2,0,0,0,3.36-.8c.64-2.48,1.55-6,2.52-9.7H102Z"/><path class="cls-1" d="M18.43,10.3A3.09,3.09,0,0,1,16,6.67l.45-2.33a3.1,3.1,0,1,1,6.08,1.17l-.45,2.34A3.09,3.09,0,0,1,18.43,10.3Z"/><path class="cls-1" d="M19.64,18.54,18,27a3.1,3.1,0,1,1-6.09-1.17l1.64-8.48a3.1,3.1,0,0,1,6.08,1.18Z"/><path class="cls-7" d="M38.84,48a8.66,8.66,0,0,0-8.65,8.66,8.56,8.56,0,0,0,1.73,5.18l6.39,8.61.06.05a.64.64,0,0,0,1-.05c1.84-2.45,5.21-7,6.51-8.77h0A8.66,8.66,0,0,0,38.84,48Zm0,13.32a4.67,4.67,0,1,1,4.67-4.66A4.68,4.68,0,0,1,38.84,61.33Z"/><path class="cls-8" d="M32.36,108.49a8.66,8.66,0,0,0-8.65,8.65,8.56,8.56,0,0,0,1.72,5.19l6.4,8.61s0,0,.05.05a.65.65,0,0,0,1-.05c1.84-2.46,5.22-7,6.52-8.77h0a8.56,8.56,0,0,0,1.6-5A8.66,8.66,0,0,0,32.36,108.49Zm0,13.32A4.67,4.67,0,1,1,37,117.14,4.68,4.68,0,0,1,32.36,121.81Z"/><path class="cls-9" d="M59.05,0a8.65,8.65,0,0,0-6.92,13.84l6.39,8.61.06.05a.65.65,0,0,0,1-.05c1.84-2.46,5.21-7,6.51-8.78h0A8.65,8.65,0,0,0,59.05,0Zm0,13.32a4.67,4.67,0,1,1,4.67-4.67A4.67,4.67,0,0,1,59.05,13.32Z"/><path class="cls-10" d="M75,47.7a8.66,8.66,0,0,0-6.93,13.84l6.4,8.61s0,0,.06,0a.63.63,0,0,0,1,0c1.84-2.46,5.22-7.05,6.52-8.78h0a8.56,8.56,0,0,0,1.6-5A8.66,8.66,0,0,0,75,47.7ZM75,61a4.67,4.67,0,1,1,4.67-4.67A4.68,4.68,0,0,1,75,61Z"/></g></g></svg>